<?xml version="1.0" encoding="utf-8"?><svg version="1.1" id="Layer_1" xmlns="http://www.w3.org/2000/svg" xmlns:xlink="http://www.w3.org/1999/xlink" x="0px" y="0px" viewBox="0 0 122.88 122.88" style="enable-background:new 0 0 122.88 122.88" xml:space="preserve"><style type="text/css">.st0{fill-rule:evenodd;clip-rule:evenodd;fill:#FBD433;} .st1{fill-rule:evenodd;clip-rule:evenodd;fill:#141518;}</style><g><path class="st0" d="M45.54,2.11c32.77-8.78,66.45,10.67,75.23,43.43c8.78,32.77-10.67,66.45-43.43,75.23 c-32.77,8.78-66.45-10.67-75.23-43.43C-6.67,44.57,12.77,10.89,45.54,2.11L45.54,2.11z"/><path class="st1" d="M51.7,33.16c0.81,0.19,1.48,0.61,2.03,1.17c2.95-1.65,5.82-2.4,8.62-2.34c2.45,0.06,4.78,0.71,7,1.91 c3.2-5.16,23.4-4.51,27.69-0.76c0.63,0.15,1.17,0.42,1.63,0.8l9.83,2.38l-7.1,5.65c0.06,0.92,0.07,1.81,0.07,2.65 c0,9.45-7.66,16.44-17.09,16.44c-9.44,0-17.09-6.99-17.09-16.44c0-1.99,0.03-3.68,0.16-5.12c-1.7-1.1-3.44-1.71-5.22-1.74 c-1.97-0.05-4.09,0.6-6.37,2.02c0.23,1.63,0.28,3.35,0.28,4.85c0,9.45-7.66,16.44-17.09,16.44c-9.45,0-17.09-6.99-17.09-16.44 c0-1.08,0.01-2.06,0.03-2.98l-7.63-6l10.22-2.26C28.01,28.79,47.64,29.66,51.7,33.16L51.7,33.16L51.7,33.16z M28.61,76.41 c16.69,19.06,51.02,19.23,65.78-0.04l2.41,2.39c-16.54,28.07-51.56,29.06-70.7,0.15L28.61,76.41L28.61,76.41z"/></g></svg>